<svg width="100" height="100" viewBox="0 0 100 100" fill="none" xmlns="http://www.w3.org/2000/svg">
<path d="M50 25C36.1929 25 25 36.1929 25 50C25 63.8071 36.1929 75 50 75C63.8071 75 75 63.8071 75 50C75 36.1929 63.8071 25 50 25ZM50 29.9988C54.6447 29.9988 58.8684 31.6498 62.2619 34.3079C60.6842 35.669 57.2937 38.2508 52.1117 40.6983C50.2014 37.3262 47.9521 33.9082 45.2636 30.6245C46.7896 30.2521 48.3612 29.9988 50 29.9988ZM41.4979 31.961C43.0115 34.0179 45.5018 37.6617 48.1293 42.3126C42.5171 44.1528 36.0321 44.2139 31.015 43.811C32.7393 38.5742 36.5601 34.2957 41.4979 31.961ZM49.7314 45.2423C50.4334 46.5851 51.126 48.0315 51.8096 49.4995C41.3299 51.7975 36.4227 58.6762 34.4604 62.4481C31.7108 59.0241 29.9987 54.7333 29.9987 50C29.9987 49.115 30.078 48.2514 30.191 47.3999C34.1339 47.9462 41.1133 48.1598 49.7314 45.2423ZM53.5431 53.534C55.4138 58.1055 57.0558 63.0585 58.0139 68.3045C55.5572 69.3817 52.8533 70.0013 50 70.0013C45.2544 70.0013 40.9546 68.2771 37.5244 65.5184C42.4896 58.6151 48.2452 55.133 53.5431 53.534ZM61.5937 66.2445C61.3403 64.8133 60.2479 59.4635 57.66 52.6154C63.7177 51.7182 68.5242 52.9023 69.7021 53.2441C68.8202 58.5907 65.8264 63.2172 61.5937 66.2445ZM56.1493 48.88C55.4229 47.1924 54.6417 45.4681 53.7293 43.692C57.3486 42.1265 61.1939 39.9871 65.1765 37.1124C68.1428 40.6006 70.0013 45.0622 70.0013 50C64.6668 48.8159 60.1014 48.5565 56.1493 48.88Z" fill="black"/>
</svg>
