<svg width="100" height="100" viewBox="0 0 100 100" fill="none" xmlns="http://www.w3.org/2000/svg">
<path d="M47.5 50.125L47.5 50.1315V55.75H42C39.0011 55.75 36.5 53.266 36.5 50.125C36.5 46.984 39.0011 44.5 42 44.5H47.5V50.1185C47.5 50.1207 47.5 50.1228 47.5 50.125ZM42 39.5C39.0011 39.5 36.5 37.016 36.5 33.875C36.5 30.734 39.0011 28.25 42 28.25H47.5V39.5L42 39.5ZM52.5 39.5V28.25H58C60.9989 28.25 63.5 30.734 63.5 33.875C63.5 37.016 60.9989 39.5 58 39.5L52.5 39.5ZM52.5 50.1317V50.1183C52.5036 46.9805 55.0032 44.5 58 44.5C60.9989 44.5 63.5 46.984 63.5 50.125C63.5 53.266 60.9989 55.75 58 55.75C55.0032 55.75 52.5036 53.2695 52.5 50.1317ZM42 60.75H47.5V66.375C47.5 69.516 44.9989 72 42 72C39.0011 72 36.5 69.516 36.5 66.375C36.5 63.234 39.0011 60.75 42 60.75Z" stroke="black" stroke-width="5"/>
</svg>
