<svg width="100" height="100" viewBox="0 0 100 100" fill="none" xmlns="http://www.w3.org/2000/svg">
<path d="M50 25C36.1938 25 25 36.4768 25 50.632C25 61.9586 32.1625 71.5644 42.0975 74.953C43.3472 75.1876 43.8034 74.396 43.8034 73.7202C43.8034 73.11 43.7805 71.0888 43.7683 68.9486C36.8164 70.4974 35.347 65.9261 35.347 65.9261C34.2087 62.9661 32.5714 62.1777 32.5714 62.1777C30.2994 60.5882 32.7437 60.6195 32.7437 60.6195C35.2538 60.7978 36.5753 63.2603 36.5753 63.2603C38.8062 67.1776 42.4286 66.045 43.8507 65.3879C44.0779 63.7359 44.7249 62.6032 45.4376 61.9649C39.888 61.3172 34.05 59.1176 34.05 49.2959C34.05 46.4955 35.025 44.2115 36.6211 42.417C36.3663 41.7662 35.5057 39.1583 36.8683 35.6305C36.8683 35.6305 38.9648 34.9421 43.7438 38.2588C45.7366 37.6877 47.8744 37.4061 50 37.3967C52.124 37.4061 54.2632 37.6908 56.2591 38.2619C61.0291 34.9421 63.1287 35.6336 63.1287 35.6336C64.4958 39.1645 63.6353 41.7693 63.3789 42.417C64.9811 44.2115 65.9485 46.4956 65.9485 49.2959C65.9485 59.1426 60.1013 61.3109 54.5319 61.9461C55.4322 62.7409 56.2287 64.2991 56.2287 66.6895C56.2287 70.1157 56.1951 72.8785 56.1951 73.7233C56.1951 74.4054 56.6498 75.2033 57.9163 74.953C67.8437 71.5581 75 61.9524 75 50.632C75 36.4768 63.8062 25 50 25Z" fill="black"/>
</svg>
